<svg xmlns="http://www.w3.org/2000/svg" id="download-jpg" viewBox="0 0 16 16">
<path fill="currentColor" fill-rule="evenodd" d="M11.797 8.614q-.265.129-.55.193-.285.064-.588.064-.686 0-1.087-.382-.4-.385-.4-1.041 0-.664.408-1.045.408-.38 1.118-.38.274 0 .524.051.252.052.474.153v.568q-.23-.13-.458-.195-.226-.064-.454-.064-.423 0-.653.237-.228.235-.228.675 0 .436.22.673.221.237.628.237.11 0 .204-.013.096-.014.171-.044v-.533h-.432v-.475h1.103zM6.571 6.072h1.175q.524 0 .804.234.281.232.281.662 0 .432-.281.666-.28.231-.804.231H7.28v.953h-.708zm.708.514v.766h.392q.206 0 .318-.099.112-.101.112-.285 0-.184-.112-.283-.112-.1-.318-.1zm-2.113-.514h.708v1.745c0 .342-.093.598-.28.767-.184.169-.465.253-.842.253H4.61v-.535h.11c.147 0 .258-.04.333-.123.076-.082.114-.203.114-.362zM9 12h2l-3 3-3-3h2V9.684h2zm3-8c0-.44-.91-3-4.5-3C5.08 1 3 2.92 3 5 1.02 5 0 6.52 0 8c0 1.53 1 3 3 3h3V9.7H3C1.38 9.7 1.3 8.28 1.3 8c0-.17.05-1.7 1.7-1.7h1.3V5c0-1.39 1.56-2.7 3.2-2.7 2.55 0 3.13 1.55 3.2 1.8v1.2H12c.81 0 2.7.22 2.7 2.2 0 2.09-2.25 2.2-2.7 2.2h-2V11h2c2.08 0 4-1.16 4-3.5C16 5.06 14.08 4 12 4z"/>
</svg>
