<svg xmlns="http://www.w3.org/2000/svg" id="download-pdf" viewBox="0 0 16 16">
<path fill="currentColor" fill-rule="evenodd" d="M10.814 6.106h1.91v.535h-1.202v.511h1.13v.535h-1.13v1.164h-.708zm-2.419.535v1.675h.254q.434 0 .662-.215.23-.215.23-.625 0-.409-.228-.622-.228-.213-.664-.213zm-.708-.535h.747q.625 0 .93.09.308.088.526.301.194.186.287.429.094.243.094.55 0 .31-.094.555-.093.243-.287.428-.22.214-.53.304-.308.088-.926.088h-.747zm-2.758 0h1.175q.524 0 .804.233.281.232.281.662 0 .432-.281.666-.28.232-.804.232h-.467v.952H4.93zm.708.513v.767h.392q.206 0 .318-.1.112-.1.112-.285 0-.184-.112-.283-.112-.1-.318-.1zM9 12h2l-3 3-3-3h2V9.684h2zm3-8c0-.44-.91-3-4.5-3C5.08 1 3 2.92 3 5 1.02 5 0 6.52 0 8c0 1.53 1 3 3 3h3V9.7H3C1.38 9.7 1.3 8.28 1.3 8c0-.17.05-1.7 1.7-1.7h1.3V5c0-1.39 1.56-2.7 3.2-2.7 2.55 0 3.13 1.55 3.2 1.8v1.2H12c.81 0 2.7.22 2.7 2.2 0 2.09-2.25 2.2-2.7 2.2h-2V11h2c2.08 0 4-1.16 4-3.5C16 5.06 14.08 4 12 4z"/>
</svg>
