<?xml version="1.0" encoding="utf-8"?>
<!DOCTYPE svg PUBLIC "-//W3C//DTD SVG 1.1 Tiny//EN" "http://www.w3.org/Graphics/SVG/1.1/DTD/svg11-tiny.dtd">
<svg version="1.1" baseProfile="tiny" id="spinner" xmlns="http://www.w3.org/2000/svg" xmlns:xlink="http://www.w3.org/1999/xlink"
	 viewBox="0 0 22 22" overflow="inherit" xml:space="preserve">
    <path fill="currentColor" d="M20.66,13.174C19.554,17.783,15.752,21,10.947,21c-2.539,0-5-1.003-6.849-2.761l-1.68,1.68
	c-0.155,0.156-0.364,0.247-0.585,0.247C1.377,20.166,1,19.788,1,19.333V13.5c0-0.456,0.377-0.834,0.833-0.834h5.833
	c0.456,0,0.833,0.378,0.833,0.834c0,0.221-0.091,0.43-0.248,0.585l-1.783,1.784c1.224,1.146,2.851,1.797,4.531,1.797
	c2.317,0,4.465-1.197,5.676-3.177c0.312-0.508,0.469-1.003,0.691-1.523c0.064-0.183,0.195-0.3,0.391-0.3h2.5
	c0.233,0,0.415,0.195,0.415,0.417C20.673,13.108,20.673,13.148,20.66,13.174z M21,8.5c0,0.456-0.378,0.833-0.836,0.833h-5.83
	c-0.459,0-0.834-0.378-0.834-0.833c0-0.221,0.09-0.43,0.246-0.585l1.797-1.798C14.307,4.971,12.68,4.333,11,4.333
	c-2.318,0-4.467,1.198-5.677,3.176C5.01,8.018,4.854,8.513,4.633,9.033c-0.065,0.183-0.195,0.3-0.391,0.3H1.651
	c-0.234,0-0.417-0.196-0.417-0.417c0-0.025,0-0.065,0-0.091C2.354,4.203,6.195,1,11,1c2.551,0,5.038,1.015,6.887,2.76l1.693-1.679
	c0.155-0.157,0.364-0.248,0.584-0.248C20.622,1.833,21,2.21,21,2.666V8.5z"/>
</svg>
