<?xml version="1.0" standalone="no"?>
<!DOCTYPE svg PUBLIC "-//W3C//DTD SVG 20010904//EN"
 "http://www.w3.org/TR/2001/REC-SVG-20010904/DTD/svg10.dtd">
<svg version="1.0" xmlns="http://www.w3.org/2000/svg"
 width="768.000000pt" height="768.000000pt" viewBox="0 0 768.000000 768.000000"
 preserveAspectRatio="xMidYMid meet">
<metadata>
Created by potrace 1.11, written by Peter Selinger 2001-2013
</metadata>
<g transform="translate(0.000000,768.000000) scale(0.100000,-0.100000)"
fill="#000000" stroke="none">
<path d="M1185 7522 c-3 -3 -5 -524 -5 -1159 l0 -1153 28 -1 c34 -1 2293 -1
2309 0 8 1 11 287 11 1156 l0 1155 -36 1 c-21 1 -53 0 -72 -1 -83 -6 -160 -4
-160 2 0 4 -6 5 -13 2 -18 -6 -127 -10 -127 -4 0 3 -37 4 -82 2 -107 -3 -241
-4 -253 -2 -6 1 -14 1 -20 0 -5 -1 -30 -1 -55 -1 -78 1 -283 0 -348 -2 -34 -1
-62 1 -62 5 0 4 -6 5 -13 2 -18 -6 -127 -10 -127 -4 0 3 -37 4 -82 2 -107 -3
-241 -4 -253 -2 -6 1 -14 1 -20 0 -5 -1 -30 -1 -55 -1 -78 1 -283 0 -348 -2
-34 -1 -62 1 -62 4 0 3 -19 3 -42 -1 -24 -3 -57 -3 -75 1 -18 3 -35 4 -38 1z"/>
<path d="M4185 7521 c-16 -4 -21 -14 -20 -36 0 -16 -3 -40 -7 -52 -4 -13 -4
-23 0 -23 8 0 7 -123 -2 -145 -3 -8 -2 -16 2 -19 8 -5 6 -80 -2 -103 -3 -7 -2
-13 2 -13 4 0 6 -17 5 -37 -2 -34 -3 -102 -2 -143 0 -8 0 -33 0 -55 -1 -22 0
-90 0 -151 1 -61 -1 -117 -5 -123 -4 -6 -4 -11 1 -11 9 0 9 -121 0 -145 -4 -8
-3 -15 1 -15 8 0 7 -122 -1 -145 -4 -8 -3 -15 1 -15 8 0 7 -122 -1 -145 -4 -8
-3 -15 1 -15 8 0 7 -123 -2 -145 -3 -8 -2 -16 2 -19 8 -5 6 -80 -2 -103 -3 -7
-2 -13 2 -13 4 0 6 -17 5 -37 -2 -34 -3 -102 -2 -143 0 -8 0 -33 0 -55 -1 -22
0 -90 0 -151 1 -61 -1 -117 -5 -123 -4 -6 -4 -11 1 -11 4 0 7 -28 6 -62 l-2
-63 1157 2 c636 1 1165 2 1175 2 16 1 17 63 17 1156 l0 1155 -27 0 c-16 0 -71
-1 -123 -1 -52 0 -123 -1 -158 -2 -34 -1 -62 1 -62 5 0 4 -6 5 -13 2 -18 -6
-127 -10 -127 -4 0 3 -37 4 -82 2 -107 -3 -241 -4 -253 -2 -6 1 -14 1 -20 0
-5 -1 -30 -1 -55 -1 -78 1 -283 0 -348 -2 -34 -1 -62 1 -62 5 0 4 -6 5 -13 2
-18 -6 -127 -10 -127 -4 0 3 -37 4 -82 2 -107 -3 -241 -4 -253 -2 -6 1 -14 1
-20 0 -5 -1 -30 -1 -55 -1 -84 1 -275 0 -348 -2 -39 -1 -73 1 -75 4 -1 3 -11
3 -22 0z"/>
<path d="M1182 3421 l3 -1156 1160 0 c638 -1 1165 1 1172 3 8 3 11 286 11
1156 l1 1153 -1175 0 -1174 0 2 -1156z"/>
<path d="M4161 4512 c-1 -37 -2 -74 -2 -82 0 -8 0 -33 0 -55 0 -22 0 -44 0
-50 3 -200 3 -254 -3 -264 -4 -6 -4 -11 1 -11 9 0 9 -121 0 -145 -4 -8 -3 -15
1 -15 8 0 7 -122 -1 -145 -4 -8 -3 -15 1 -15 8 0 7 -122 -1 -145 -4 -8 -3 -15
1 -15 8 0 7 -123 -2 -145 -3 -8 -2 -16 2 -19 8 -5 6 -80 -2 -103 -3 -7 -2 -13
2 -13 4 0 6 -17 5 -37 -2 -34 -3 -102 -2 -143 0 -8 0 -33 0 -55 -1 -22 0 -90
0 -151 1 -61 -1 -117 -5 -123 -4 -6 -4 -11 1 -11 9 0 9 -121 0 -145 -4 -8 -2
-15 4 -15 6 0 8 -4 5 -8 -5 -9 -6 -23 -6 -145 0 -38 -2 -72 -5 -77 -3 -5 -2
-11 3 -14 4 -2 7 -25 5 -50 -2 -38 0 -46 15 -47 9 0 265 -1 567 -2 l550 -2 -2
-83 c-1 -94 -5 -126 -28 -237 -10 -44 -18 -87 -20 -95 -10 -51 -79 -212 -121
-281 -43 -71 -141 -183 -200 -230 -55 -43 -144 -99 -168 -105 -14 -3 -26 -9
-26 -13 0 -6 -176 -77 -215 -86 -5 -2 -39 -10 -75 -19 -36 -8 -81 -18 -100
-21 -77 -12 -70 40 -70 -505 l0 -488 53 4 c93 7 209 21 282 34 28 5 64 12 80
15 50 8 232 55 305 78 137 43 377 153 463 211 20 14 37 23 37 20 0 -3 7 1 15
9 8 8 31 25 52 38 101 62 337 278 413 378 14 19 33 42 43 52 9 11 17 23 17 28
0 5 4 11 8 13 24 10 226 358 237 408 1 3 9 23 19 45 23 52 106 299 112 334 3
14 8 35 11 46 4 11 8 25 9 30 1 6 7 35 13 65 28 135 32 163 46 295 4 39 10 79
13 90 3 11 7 529 9 1152 l4 1132 -1174 -1 -1174 0 -2 -66z"/>
</g>
</svg>
