<svg version="1.1" viewBox="0 0 288 48" xml:space="preserve" xmlns="http://www.w3.org/2000/svg">
    <path fill="#c41100" d="m34.295 19.384v12.194c0 9.6996-5.4133 15.281-13.995 15.787v-6.1302c2.0454-0.28779 3.5865-1.0219 4.6441-2.1091 1.0346-1.0632 1.6008-2.6927 1.7498-4.3915 0.0015-0.03464 0.0056-0.87403 0.0099-0.91001h-7.0803v-14.44h14.672"/>
    <g fill="#666466"><path d="m19.623 15.454v-14.451h14.672v14.451h-14.672"/><path d="m0.99809 15.454v-14.451h14.672v14.451h-14.672"/><path d="m0.99809 33.84v-14.452h14.672v14.452h-14.672"/><path d="m42.281 19.397h4.4681l3.3777 9.9315h0.04064l3.1941-9.9315h4.4692v14.442h-2.9724v-10.235h-0.03957l-3.539 10.235h-2.4468l-3.5406-10.131h-0.03957v10.131h-2.9717v-14.442"/><path d="m74.453 30.443c0.01812 1.2564 1.0706 1.7627 2.202 1.7627 0.83113 0 1.8809-0.32376 1.8809-1.335 0-0.87137-1.1913-1.1738-3.2555-1.6188-1.6581-0.36374-3.3157-0.95131-3.3157-2.7926 0-2.6701 2.3055-3.3562 4.5487-3.3562 2.2874 0 4.3907 0.76878 4.6119 3.3362h-2.7299c-0.08167-1.1112-0.93106-1.415-1.962-1.415-0.64753 0-1.5972 0.12125-1.5972 0.96996 0 1.0326 1.617 1.1738 3.2564 1.5589 1.6774 0.38372 3.3153 0.98995 3.3153 2.9325 0 2.75-2.3853 3.6387-4.7716 3.6387-2.4278 0-4.7933-0.90867-4.9151-3.6813h2.7319"/><path d="m86.724 23.381h2.1027v1.9213h-2.1027v5.1789c0 0.9713 0.24156 1.2138 1.2117 1.2138 0.30298 0 0.58704-0.02132 0.89109-0.08261v2.245c-0.48618 0.08127-1.1117 0.10259-1.6785 0.10259-1.7602 0-3.2976-0.40637-3.2976-2.4889v-6.1689h-1.7389v-1.9213h1.7389v-3.1337h2.8734v3.1337"/><path d="m92.426 30.443c0.01932 1.2564 1.0711 1.7627 2.2041 1.7627 0.8286 0 1.8798-0.32376 1.8798-1.335 0-0.87137-1.1938-1.1738-3.2559-1.6188-1.6597-0.36374-3.3173-0.95131-3.3173-2.7926 0-2.6701 2.3071-3.3562 4.5503-3.3562 2.2858 0 4.3884 0.76878 4.6117 3.3362h-2.7298c-0.08167-1.1112-0.93159-1.415-1.9622-1.415-0.6474 0-1.5972 0.12125-1.5972 0.96996 0 1.0326 1.6186 1.1738 3.2544 1.5589 1.6789 0.38372 3.3163 0.98995 3.3163 2.9325 0 2.75-2.3857 3.6387-4.7704 3.6387-2.4274 0-4.794-0.90867-4.9152-3.6813h2.7314"/><path d="m101.33 19.397h2.8712v7.745l3.6208-3.7613h3.3986l-3.945 3.8439 4.3874 6.6139h-3.4776l-2.8708-4.6726-1.1133 1.0726v3.6001h-2.8712v-14.442"/><path d="m129.47 19.397h2.8712v7.745l3.6214-3.7613h3.3975l-3.9438 3.8439 4.3875 6.6139h-3.4775l-2.8712-4.6726-1.1139 1.0726v3.6001h-2.8712v-14.442"/><path d="m140.82 23.381h2.73v1.4576h0.0599c0.72881-1.1738 1.9826-1.7401 3.195-1.7401 3.0538 0 3.8226 1.7188 3.8226 4.3075v6.4327h-2.8726v-5.9064c0-1.7188-0.50497-2.5675-1.8373-2.5675-1.5589 0-2.229 0.8687-2.229 2.9912v5.4827h-2.8686v-10.458"/><path d="m156.09 21.929h-2.8726v-2.5248h2.8726zm-2.8726 1.4589h2.8726v10.458h-2.8726v-10.458"/><path d="m158.69 19.397h2.8726v5.4414h0.0599c0.72614-1.1738 1.9826-1.7401 3.0538-1.7401 3.0538 0 3.8239 1.7188 3.8239 4.3075v6.4327h-2.8739v-5.9064c0-1.7188-0.50497-2.5675-1.8387-2.5675-1.5575 0-2.225 0.8687-2.225 2.9912v5.4827h-2.8726v-14.442"/><path d="m175.75 23.101c3.2963 0 5.4201 2.1851 5.4201 5.5213 0 3.3176-2.1238 5.5-5.4201 5.5-3.275 0-5.4001-2.1824-5.4001-5.5 0-3.3362 2.1251-5.5213 5.4001-5.5213zm0 8.8576c1.9612 0 2.5488-1.6774 2.5488-3.3362 0-1.6801-0.58757-3.3576-2.5488-3.3576-1.9413 0-2.5288 1.6774-2.5288 3.3576 0 1.6588 0.58757 3.3362 2.5288 3.3362"/><path d="m188.16 33.84h-3.1964l-3.5787-10.458h3.0125l2.2051 7.1402h0.0413l2.2037-7.1402h2.8513l-3.5388 10.458"/><path d="m192.89 23.381h2.73v1.4576h0.06c0.72748-1.1738 1.9812-1.7401 3.1964-1.7401 3.0524 0 3.8212 1.7188 3.8212 4.3075v6.4327h-2.8726v-5.9064c0-1.7188-0.50497-2.5675-1.8387-2.5675-1.5575 0-2.2237 0.8687-2.2237 2.9912v5.4827h-2.8726v-10.458"/><path d="m204.76 26.606c0.16122-2.6914 2.5688-3.5001 4.9138-3.5001 2.0825 0 4.5913 0.465 4.5913 2.9725v5.4401c0 0.94998 0.0999 1.9013 0.3624 2.3276h-2.9112c-0.10259-0.32376-0.1812-0.66885-0.20252-1.0113-0.91134 0.94998-2.245 1.2924-3.5174 1.2924-1.9826 0-3.5601-0.98995-3.5601-3.1324 0-2.3676 1.78-2.9325 3.5601-3.1764 1.7561-0.26248 3.3962-0.20119 3.3962-1.3763 0-1.2324-0.84872-1.415-1.8613-1.415-1.0912 0-1.7987 0.44634-1.9013 1.5789zm6.6325 2.1238c-0.48365 0.42369-1.4976 0.44368-2.3876 0.60623-0.88869 0.1812-1.6961 0.48498-1.6961 1.5376 0 1.0712 0.8274 1.335 1.7574 1.335 2.245 0 2.3263-1.7814 2.3263-2.4076v-1.0712"/><path d="m112.05 26.606c0.16028-2.6914 2.5664-3.5001 4.912-3.5001 2.0838 0 4.5913 0.465 4.5913 2.9725v5.4401c0 0.94998 0.10126 1.9013 0.36507 2.3276h-2.9126c-0.1026-0.32376-0.18254-0.66885-0.20252-1.0113-0.91134 0.94998-2.2464 1.2924-3.5188 1.2924-1.9834 0-3.5598-0.98995-3.5598-3.1324 0-2.3676 1.7799-2.9325 3.5598-3.1764 1.7574-0.26248 3.3962-0.20119 3.3962-1.3763 0-1.2324-0.84872-1.415-1.86-1.415-1.0926 0-1.799 0.44634-1.9016 1.5789zm6.6308 2.1238c-0.48365 0.42369-1.4962 0.44368-2.3863 0.60623-0.88869 0.1812-1.6974 0.48498-1.6974 1.5376 0 1.0712 0.8274 1.335 1.7574 1.335 2.245 0 2.3263-1.7814 2.3263-2.4076v-1.0712"/><path d="m226.57 33.84h-3.1924l-3.5814-10.458h3.0125l2.2051 7.1402h0.04l2.2051-7.1402h2.8513l-3.5401 10.458"/><path d="m235.5 19.397h6.2475c3.6001 0 4.995 2.2863 4.995 4.63 0 2.349-1.395 4.634-4.995 4.634h-3.0738v5.1776h-3.1737zm3.1737 6.7951h2.2024c1.4776 0 2.7913-0.32376 2.7913-2.1651 0-1.8373-1.3137-2.1624-2.7913-2.1624h-2.2024v4.3275"/><path d="m248.09 23.381h2.73v1.9426h0.04c0.52495-1.315 1.9413-2.2251 3.3376-2.2251 0.20252 0 0.44634 0.03997 0.62754 0.10259v2.6674c-0.2638-0.05996-0.6875-0.09993-1.0326-0.09993-2.1025 0-2.83 1.5162-2.83 3.3576v4.7126h-2.8726v-10.458"/><path d="m255.51 26.606c0.16122-2.6914 2.5675-3.5001 4.9164-3.5001 2.0825 0 4.59 0.465 4.59 2.9725v5.4401c0 0.94998 0.10126 1.9013 0.3624 2.3276h-2.9099c-0.10259-0.32376-0.1812-0.66885-0.20385-1.0113-0.90867 0.94998-2.2437 1.2924-3.5188 1.2924-1.9812 0-3.5601-0.98995-3.5601-3.1324 0-2.3676 1.78-2.9325 3.5601-3.1764 1.7587-0.26248 3.3975-0.20119 3.3975-1.3763 0-1.2324-0.84872-1.415-1.86-1.415-1.0925 0-1.7987 0.44634-1.9013 1.5789zm6.6339 2.1238c-0.48632 0.42369-1.4976 0.44368-2.3863 0.60623-0.88869 0.1812-1.6988 0.48498-1.6988 1.5376 0 1.0712 0.82873 1.335 1.7601 1.335 2.245 0 2.325-1.7814 2.325-2.4076v-1.0712"/><path d="m266.73 31.682 5.2935-6.1276h-5.035v-2.1651h8.699v2.1651l-5.4414 6.1276h5.8158v2.1651h-9.3319v-2.1651"/><path d="m279.42 29.31c0.0826 1.8187 0.9713 2.6487 2.5675 2.6487 1.1538 0 2.0852-0.70749 2.2664-1.3537h2.5288c-0.81141 2.4675-2.5288 3.5174-4.8951 3.5174-3.2963 0-5.3388-2.2637-5.3388-5.5 0-3.1337 2.1638-5.5213 5.3388-5.5213 3.5601 0 5.2788 2.9938 5.0763 6.2088zm4.67-1.82c-0.25981-1.4563-0.88602-2.2251-2.2837-2.2251-1.82 0-2.3436 1.4163-2.3863 2.2251h4.67"/><path d="m62.732 29.31c0.07914 1.8187 0.96903 2.6487 2.5669 2.6487 1.1544 0 2.0849-0.70749 2.2645-1.3537h2.5288c-0.80928 2.4675-2.5288 3.5174-4.8923 3.5174-3.2971 0-5.3404-2.2637-5.3404-5.5 0-3.1337 2.1636-5.5213 5.3404-5.5213 3.558 0 5.277 2.9938 5.0745 6.2088zm4.6706-1.82c-0.26341-1.4563-0.88949-2.2251-2.2843-2.2251-1.8205 0-2.3462 1.4163-2.3863 2.2251h4.6706"/><path d="m66.344 19.397-1.2522 1.5602-1.2975-1.5602h-2.2745l2.1828 2.7127h2.7256l2.1833-2.7127h-2.2677"/><path d="m120.21 19.397h-3.0458l-1.7814 2.7673h2.1491l2.678-2.7673"/></g>
</svg>
